<?xml version="1.0" encoding="utf-8"?>
<!-- Generator: Adobe Illustrator 19.1.1, SVG Export Plug-In . SVG Version: 6.00 Build 0)  -->
<svg version="1.1" id="Layer_1" xmlns="http://www.w3.org/2000/svg" xmlns:xlink="http://www.w3.org/1999/xlink" x="0px" y="0px"
	 viewBox="0 0 100 100" style="enable-background:new 0 0 100 100;" xml:space="preserve">
<style type="text/css">
	.st0{fill:#4D4F53;}
	.st1{fill:#4D4F53;stroke:#4D4F53;stroke-miterlimit:10;}
	.st2{fill:#FFFFFF;}
	.st3{fill:#FFFFFF;stroke:#FFFFFF;stroke-width:7.5;stroke-linecap:round;stroke-miterlimit:10;}
</style>
<path class="st0" d="M48.3,11.8c-21.1,0-38.2,17.1-38.2,38.2s17.1,38.2,38.2,38.2S86.5,71.1,86.5,50S69.4,11.8,48.3,11.8z M62.7,56
	h-8.5v8.5c0,3.5-2.7,6.4-6,6.4c-3.3,0-6-2.9-6-6.4V56h-8.5c-3.5,0-6.4-2.7-6.4-6c0-3.3,2.9-6,6.4-6h8.5v-8.5c0-3.5,2.7-6.4,6-6.4
	c3.3,0,6,2.9,6,6.4V44h8.5c3.5,0,6.4,2.7,6.4,6C69.1,53.3,66.2,56,62.7,56z"/>
</svg>
